<?xml version="1.0" standalone="no"?><!DOCTYPE svg PUBLIC "-//W3C//DTD SVG 1.1//EN" "http://www.w3.org/Graphics/SVG/1.1/DTD/svg11.dtd"><svg class="icon" height="512" viewBox="0 0 1024 1024" version="1.1" xmlns="http://www.w3.org/2000/svg"><path d="M799.52896 305.23221333333333l12.47232 600.5504-253.568-74.2656-14.55104-103.59808 255.64672-422.68672z m-546.63168 0l-20.7872 553.22624 263.96672-26.94144-10.3936-105.6768-232.78592-420.608z" fill="#312B28" /><path d="M460.73856 705.1349333333334h118.47168v80.79872l133.0176 20.72576s-84.46976 55.94624-195.36896 55.94624c-96.08704 0-172.51328-58.01984-172.51328-58.01984l116.39296-20.72064v-78.73024z" fill="#FDCC9B" /><path d="M460.58496 738.1589333333334s49.90976 36.62848 118.46144 27.90912v-45.94176H460.58496v18.03264z" fill="#FCBC85" /><path d="M523.84256 774.0552533333333v222.14656h386.50368c0.00512-90.06592-183.86432-222.14656-386.50368-222.14656zM523.84256 774.0552533333333v222.14656h-386.5088c0.00512-90.06592 183.87456-222.14656 386.5088-222.14656z" fill="#FDC16E" /><path d="M494.57152 895.6347733333333l29.27104 100.56192M550.86592 895.6347733333333l-27.02336 100.56192" fill="#F78E4D" /><path d="M399.26272 996.1966933333333l-18.01216-202.62912s-39.02464-1.50528-85.5552 32.26624l-38.27712 170.36288h141.84448z m249.1648 0l18.0224-202.62912s39.01952-1.50528 85.5552 32.26624l39.02464 171.11552h-142.60224v-0.75264z" fill="#4D423E" /><path d="M281.99424 243.07029333333335l-4.16256 118.10304s6.03648 95.3856 18.70848 157.47584c9.0368 44.26752 25.51808 80.0768 56.1152 120.18688 44.38528 58.1888 125.76256 101.43744 166.27712 101.51936 42.6496 0.10752 112.03072-37.05856 155.8784-89.088 26.56256-31.52384 66.03776-85.52448 72.74496-126.39744 13.89568-84.62336 22.86592-223.77472 22.86592-223.77472L691.44576 195.41333333333336l-409.45152 47.65696z" fill="#FDCC9B" /><path d="M508.544 62.81045333333333c-213.92384 0-255.64672 179.11296-255.64672 236.2112 0 88.43776-8.32 211.34336-8.32 211.34336s21.62176-84.25984 22.8608-78.73536c3.29728 14.65344 3.62496 49.90464 4.16256 49.72544 3.53792-1.16224 35.33312 16.57344 35.33312 16.57344l-2.07872-134.6816s62.32576 2.28352 114.31424-22.79424c43.98592-21.21728 49.88416-103.6032 49.88416-103.6032s26.84416 95.0528 89.37984 109.81888c62.53056 14.76608 164.63872-15.19104 174.592 29.00992 14.04416 62.39232 6.03136 90.32704 2.23232 130.75456-0.06656 0.64 26.86976-14.72 26.86976-14.72s4.57728-37.13024 6.23104-49.72544c2.95936-22.3488 14.5408 56.6016 14.56128 55.94112 0.55808-17.80736 16.62464-99.52768 16.62464-190.6176-0.01536-118.17984-103.23968-244.50048-291.00032-244.50048z" fill="#312B28" /><path d="M292.38272 433.6981333333333c0.15872-0.04608-9.7536-26.0608-31.17568-12.43136-12.12928 7.72096-13.15328 43.40224-8.31488 62.16192 6.15424 23.8592 17.14176 32.41984 27.01824 39.36256 8.09472 5.16096 20.77696 4.49536 20.78208 4.14208l-8.30976-93.2352z m465.3824-18.19136c-0.1536-0.0512 10.04544-2.52928 22.5536 4.16768 12.54912 6.72256 12.96896 43.63264 8.19712 62.49984-6.0672 23.99232-16.91648 32.59904-26.65472 39.58272-7.9872 5.18144-22.59968 5.53472-22.60992 5.18144l18.51392-111.43168z" fill="#FDCC9B" /><path d="M448.84992 486.0757333333333c0 17.44384-12.79488 31.40096-28.4928 31.40096-15.70304 0-28.4928-13.95712-28.4928-31.40096s12.78976-31.40096 28.4928-31.40096c15.69792 0 28.4928 13.952 28.4928 31.40096z" fill="#3B2519" /><path d="M449.02912 782.5646933333334l74.82368 151.0656c4.4288 0 74.80832-151.0656 74.80832-151.0656s-77.35296-31.64672-149.632 0z" fill="#FDCC9B" /><path d="M416.2816 472.1186133333333c0 4.64896-4.0704 8.71936-8.71936 8.71936s-8.71936-4.0704-8.71936-8.71936 4.0704-8.71936 8.71936-8.71936 8.71936 4.0704 8.71936 8.71936z" fill="#FFFFFF" /><path d="M369.29536 418.61973333333333c13.37344 5.23264 35.47648-17.44384 85.4784 2.3296 9.30304 3.48672 14.53568-30.8224-38.95808-30.8224-46.52032-0.57856-54.66112 25.00608-46.52032 28.4928z" fill="#4C2D19" /><path d="M665.02144 486.0757333333333c0 17.44384-12.79488 31.40096-28.4928 31.40096s-28.4928-13.95712-28.4928-31.40096 12.79488-31.40096 28.4928-31.40096 28.4928 13.952 28.4928 31.40096z" fill="#3B2519" /><path d="M632.45312 472.1186133333333c0 4.64896-4.0704 8.71936-8.72448 8.71936-4.64896 0-8.71936-4.0704-8.71936-8.71936s4.0704-8.71936 8.71936-8.71936c4.65408 0 8.72448 4.0704 8.72448 8.71936z" fill="#FFFFFF" /><path d="M673.26976 418.61973333333333c-13.36832 5.23264-35.47136-17.44384-85.4784 2.3296-9.29792 3.48672-14.53568-30.8224 38.95808-30.8224 46.52032-0.57856 54.66112 25.00608 46.52032 28.4928z" fill="#4C2D19" /><path d="M528.96256 591.4402133333334c-28.4928 0-45.35296-20.93568-45.35296-11.04896 0 10.4704 8.1408 29.65504 45.35296 29.65504s45.35296-19.18464 45.35296-29.65504c0.00512-9.88672-16.85504 11.04896-45.35296 11.04896z m-5.12 79.41632c-9.88672 0-15.69792-7.56224-15.69792-3.49184 0 3.49184 2.90304 10.4704 15.69792 10.4704s15.69792-6.97856 15.69792-10.4704c0.00512-4.06528-5.8112 3.49184-15.69792 3.49184z" fill="#FCBC85" /><path d="M528.96256 649.8133333333334c-44.7744 0-72.10496-18.60608-72.10496-13.95712s12.78976 22.6816 72.10496 22.6816c59.31008 0 72.10496-18.02752 72.10496-22.6816s-27.32544 13.95712-72.10496 13.95712z" fill="#F8945E" /><path d="M612.4032 755.2904533333334l-51.03616 53.28896-36.77696 129.83296 53.28384-79.55456 59.2896 32.27136 51.77856-93.06112c-0.73728 1.50016-45.7728-39.77216-76.53888-42.7776z m-177.11616 0l51.03616 53.28896 36.77184 129.83296-52.5312-78.80192-59.2896 32.26624-51.78368-93.056c-0.00512 0.74752 45.02528-40.5248 75.79648-43.53024z" fill="#F78E4D" /><path d="M525.02528 996.9493333333334v-75.2128l-50.60608-57.40032 50.60608 132.61312z m0 0v-75.2128l46.70464-57.40032-46.70464 132.61312z" fill="#F78E4D" /></svg>